# xmcd
#
# Track frame offsets: 
#        150
#        9581
#        24804
#        38338
#        48458
#        65494
#        78301
#        95125
#        107568
#        124614
#        135407
#        148808
#        160571
#        168370
#        186151
#
# Disc length: 2749 seconds
#
# Revision: 0
# Processed by: cddbd v1.5.2PL0 Copyright (c) Steve Scherf et al.
# Submitted via: ExactAudioCopy v0.99pb4
#
DISCID=b60abb0f
DTITLE=The Buckaroos - Swamp Pop
DYEAR=1900
DGENRE=Blues
TTITLE0=Mad Pike
TTITLE1=If It Don't Hurt, It Won't Work
TTITLE2=She's So Fine
TTITLE3=Qeen Of The Hop
TTITLE4=Gone Was All my Misery
TTITLE5=Swamp Pop
TTITLE6=Let's Party
TTITLE7=Before We Were Through
TTITLE8=Wasted Days, Wasted Nights
TTITLE9=I'm Cajun Cool
TTITLE10=Habanero Hot Sauce Queen
TTITLE11=Let's Do The Buckaroo
TTITLE12=Soul Groove
TTITLE13=Before I Grow To Old
TTITLE14=Breakin' Up The House
EXTD=
EXTT0=
EXTT1=
EXTT2=
EXTT3=
EXTT4=
EXTT5=
EXTT6=
EXTT7=
EXTT8=
EXTT9=
EXTT10=
EXTT11=
EXTT12=
EXTT13=
EXTT14=
PLAYORDER=
